/* XPM */
static char *e2c371d2e523472f9ad9067b36b4f0f9PVNlwiIkv2hrypVt[] = {
/* columns rows colors chars-per-pixel */
"32 32 183 2 ",
"   c None",
".  c #E1227F",
"X  c #E3227F",
"o  c #E4227E",
"O  c #E4237E",
"+  c #8C378C",
"@  c #8D378C",
"#  c #8E378C",
"$  c #8F378C",
"%  c #833A8D",
"&  c #813A8E",
"*  c #813B8E",
"=  c #813B8F",
"-  c #823A8E",
";  c #833A8E",
":  c #85398D",
">  c #86398D",
",  c #87398D",
"<  c #843A8D",
"1  c #853A8D",
"2  c #85398E",
"3  c #89388C",
"4  c #88398D",
"5  c #89398D",
"6  c #8A388C",
"7  c #8B388C",
"8  c #8C388C",
"9  c #93358A",
"0  c #92358B",
"q  c #90368B",
"w  c #91368B",
"e  c #90378B",
"r  c #91378B",
"t  c #92368A",
"y  c #92368B",
"u  c #93368B",
"i  c #92378B",
"p  c #97358A",
"a  c #94368B",
"s  c #95368B",
"d  c #96368B",
"f  c #91368C",
"g  c #90378C",
"h  c #92368C",
"j  c #9F3389",
"k  c #9D338A",
"l  c #9E338A",
"z  c #993489",
"x  c #9B3489",
"c  c #99348A",
"v  c #98358A",
"b  c #9A348A",
"n  c #9B348A",
"m  c #9A358A",
"M  c #9B348B",
"N  c #9C3489",
"B  c #9C348A",
"V  c #9D348A",
"C  c #9D358A",
"Z  c #9E348A",
"A  c #AE2F87",
"S  c #AF2F87",
"D  c #AE2F88",
"F  c #B22D86",
"G  c #B02E86",
"H  c #B02F87",
"J  c #B12F87",
"K  c #B22E86",
"L  c #B32E86",
"P  c #B32E87",
"I  c #B22F87",
"U  c #B72D86",
"Y  c #B42E86",
"T  c #B52E86",
"R  c #B62E86",
"E  c #B72E86",
"W  c #BE2B85",
"Q  c #BF2B85",
"!  c #B82D85",
"~  c #BA2C85",
"^  c #BB2C85",
"/  c #BA2D85",
"(  c #B82D86",
")  c #B92D86",
"_  c #BA2C86",
"`  c #BD2C84",
"'  c #BC2C85",
"]  c #BD2C85",
"[  c #BE2C85",
"{  c #B22F88",
"}  c #AC3087",
"|  c #AD3087",
" . c #AE3087",
".. c #A13288",
"X. c #A13289",
"o. c #A03389",
"O. c #A13389",
"+. c #A23288",
"@. c #A23289",
"#. c #A33289",
"$. c #A23389",
"%. c #A33389",
"&. c #A63188",
"*. c #A73188",
"=. c #A63189",
"-. c #A43288",
";. c #A53288",
":. c #A43289",
">. c #A53289",
",. c #A63288",
"<. c #A73288",
"1. c #A83188",
"2. c #AA3088",
"3. c #AB3088",
"4. c #AA3188",
"5. c #AD3188",
"6. c #CF2782",
"7. c #CE2783",
"8. c #C32A83",
"9. c #C72983",
"0. c #C42A83",
"q. c #C02B84",
"w. c #C12B84",
"e. c #C02B85",
"r. c #C32A84",
"t. c #C22B84",
"y. c #C32B84",
"u. c #C22A85",
"i. c #C52984",
"p. c #C52A84",
"a. c #C42B84",
"s. c #C62A84",
"d. c #C82882",
"f. c #C92883",
"g. c #C82983",
"h. c #C92983",
"j. c #CA2883",
"k. c #CB2883",
"l. c #CA2983",
"z. c #CB2983",
"x. c #C82A83",
"c. c #CC2883",
"v. c #CD2883",
"b. c #CE2882",
"n. c #CE2883",
"m. c #C82984",
"M. c #D22680",
"N. c #D02682",
"B. c #D12682",
"V. c #D02782",
"C. c #D12782",
"Z. c #D32682",
"A. c #D22782",
"S. c #D32782",
"D. c #D52581",
"F. c #D72581",
"G. c #D42681",
"H. c #D52681",
"J. c #D62681",
"K. c #D72681",
"L. c #D42682",
"P. c #D52682",
"I. c #D42782",
"U. c #DF2280",
"Y. c #D92481",
"T. c #D82581",
"R. c #D92581",
"E. c #DB2480",
"W. c #DB2481",
"Q. c #DA2581",
"!. c #DB2581",
"~. c #D82682",
"^. c #DC2480",
"/. c #DD2480",
"(. c #DE2480",
"). c #DF2480",
"_. c #E02380",
"`. c #E12380",
"'. c #E32280",
"]. c #E22380",
"[. c #E42380",
"{. c #E02480",
"}. c #E22480",
/* pixels */
"                            > > *                               ",
"                          @ 7 > > *                             ",
"                        h @ 8 7 > >                             ",
"                      s a h h 7 7 >                             ",
"                    C m m s i g 8                               ",
"                  >.o.C z s s h                                 ",
"                -.-.+.k k m m         i i @ 7 > > *             ",
"              5.2.2.-.+.+.k       m m s i @ @ 7 7 > > *         ",
"            P H 5.2.2.-.+.      +.C M M s i i @ 7 > > * *       ",
"        ~ Y Y P { } 5.-.      -.+.k m M z s i i 8 7 7 > * *     ",
"      q.[ ~ Y Y F F A     D 5.-.-.-.+.C z z s i h @ 8 7 > * *   ",
"    0.q.Q [ [ ~ T F     { F A 5.2.-.+.+.          h @ 8 7 > >   ",
"  z.0.s.q.q.[ ~       ~ Y F H 5.2.2.-.              i @ 8 7 > > ",
"  n.z.z.s.s.q.      Q ~ ~ T T H 5.      z m m         i @ 8 7 > ",
"M.n.n.z.s.s.      y.y.[ ~ Y T {       +.C k m s       s h h 8 7 ",
"D.D.V.n.z.d.    m.s.q.q.[ [ ~       -.-.+.+.k m       s i h @ @ ",
"I.I.I.V.n.      d.m.s.q.q.q.      5.2.-.-.+.C k     m m s a h h ",
"!.. I.I.V.      M.6.m.s.s.      { { 5.2.,.>.+.      +.C z m s i ",
". Q.D.I.D.      7.n.n.m.      Y Y H F 5.2.2.      +.+.C k m m   ",
"{.. . ~.D.I.                [ ~ ~ Y F A 5.      2.2.-.-.+.k m   ",
"  }.!.. ~.~..           q.q.q.Q ~ ~ { H       5.} 2.-.-.+.+.    ",
"  . }.(.!.D.V.M.M.7.7.m.z.s.q.q.[ ~ )     ) T F F A 5.2.-.      ",
"    . . !.. ~.~.I.A.M.n.z.0.s.q.[ [     [ ~ P P F H 5.2.        ",
"      O }.}.U.~.~.D.M.n.z.z.z.s.      y.y.[ [ ~ T F {           ",
"        O }.}.!.~.~.D.n.n.z.z.      z.0.y.[ [ ~ ~               ",
"            . }.. ~.~.. M.        n.n.0.s.y.y.[                 ",
"                                M.V.n.z.m.s.y.                  ",
"                              ~.D.V.6.n.z.z.                    ",
"                            . !.~.~.D.V.n.                      ",
"                            }.!.!.~.D.I.                        ",
"                            [.`.. !.~.                          ",
"                              [.}.!.                            "
};
