/* XPM */
static char *_8149570055b4b3be863c0ec5e21d424VUJkNJ5KaQP6ef66[] = {
/* columns rows colors chars-per-pixel */
"16 16 99 2 ",
"   c None",
".  c #8F378C",
"X  c #813A8D",
"o  c #823A8E",
"O  c #823B8E",
"+  c #87388D",
"@  c #86398D",
"#  c #87398D",
"$  c #863A8D",
"%  c #88398D",
"&  c #8B388C",
"*  c #8C388C",
"=  c #8D388C",
"-  c #90368B",
";  c #90378B",
":  c #92368A",
">  c #92368B",
",  c #95358A",
"<  c #96358A",
"1  c #97358A",
"2  c #95368B",
"3  c #90368C",
"4  c #92368C",
"5  c #92378C",
"6  c #9F3389",
"7  c #9C338A",
"8  c #9A348A",
"9  c #9D348A",
"0  c #AE2F86",
"q  c #AF2F87",
"w  c #B02F87",
"e  c #B22E86",
"r  c #B32E86",
"t  c #B22F86",
"y  c #B22E87",
"u  c #B62D86",
"i  c #B72D86",
"p  c #B42E86",
"a  c #B62E86",
"s  c #BD2B84",
"d  c #BE2B85",
"f  c #BF2B85",
"g  c #B92D85",
"h  c #BA2C85",
"j  c #BB2C85",
"k  c #B82D86",
"l  c #BD2C85",
"z  c #BC2D86",
"x  c #B02E88",
"c  c #AB3087",
"v  c #AD3087",
"b  c #AE3087",
"n  c #A03289",
"m  c #A03389",
"M  c #A23288",
"N  c #A23289",
"B  c #A73188",
"V  c #A53288",
"C  c #A43289",
"Z  c #A73288",
"A  c #A83188",
"S  c #A93188",
"D  c #AB3088",
"F  c #AA3188",
"G  c #CE2782",
"H  c #CF2782",
"J  c #C72882",
"K  c #C62983",
"L  c #C02B84",
"P  c #C12B84",
"I  c #C22A84",
"U  c #C32A84",
"Y  c #C22B84",
"T  c #C42A84",
"R  c #C52A84",
"E  c #C62A84",
"W  c #C82983",
"Q  c #CB2883",
"!  c #CA2983",
"~  c #CD2882",
"^  c #CD2883",
"/  c #D32681",
"(  c #D02782",
")  c #D22682",
"_  c #D32782",
"`  c #D42681",
"'  c #D52681",
"]  c #D62782",
"[  c #D82581",
"{  c #D92581",
"}  c #DA2480",
"|  c #DA2581",
" . c #D82681",
".. c #DD2480",
"X. c #DE2480",
"o. c #DF2480",
"O. c #E32280",
"+. c #E22380",
"@. c #E42380",
/* pixels */
"              + o               ",
"            5 * %               ",
"          9 8 4                 ",
"        Z N 9     , . % %       ",
"    i t v A     9 8 , ; * + o   ",
"  I l k t   x A Z N     5 % + o ",
"  W I l   k i b c         : % % ",
") ^ J   K I l i   Z m 8   , : = ",
" ._ ^   W K L   v A Z 6   6 , : ",
"X. ._     ^   k t t A   Z N 9   ",
"+.X. .]     K L h i   t b A N   ",
"  @.+..._ ( W K     s k t b     ",
"      +. ._ )     W K s         ",
"                ) ^ K           ",
"              .. ._             ",
"              +.+.              "
};
