/* XPM */
static char *de5ba936ec834c9f92e5d13ad4fc37bfXGXUFUnaE4xiPk35[] = {
/* columns rows colors chars-per-pixel */
"64 64 155 2 ",
"   c None",
".  c #E1237F",
"X  c #E2227F",
"o  c #E3227F",
"O  c #E2237F",
"+  c #E5217F",
"@  c #E4227E",
"#  c #E4227F",
"$  c #E5227F",
"%  c #7F3A8E",
"&  c #7F3B8E",
"*  c #8E378B",
"=  c #8F378B",
"-  c #8C378C",
";  c #8D378C",
":  c #8E378C",
">  c #83398D",
",  c #813A8D",
"<  c #823A8D",
"1  c #833A8D",
"2  c #803A8E",
"3  c #803B8E",
"4  c #84398D",
"5  c #85398D",
"6  c #87388C",
"7  c #86398D",
"8  c #87398D",
"9  c #8B388B",
"0  c #88388C",
"q  c #89388C",
"w  c #8A388C",
"e  c #8B388C",
"r  c #8C388C",
"t  c #93358A",
"y  c #93358B",
"u  c #90368B",
"i  c #91368B",
"p  c #90378B",
"a  c #92368B",
"s  c #93368B",
"d  c #94358A",
"f  c #95358A",
"g  c #94358B",
"h  c #95358B",
"j  c #96358A",
"k  c #97358A",
"l  c #94368B",
"z  c #9C3389",
"x  c #9D3389",
"c  c #9F3289",
"v  c #9E3389",
"b  c #9F3389",
"n  c #993489",
"m  c #98348A",
"M  c #99348A",
"N  c #98358A",
"B  c #9A348A",
"V  c #9B348A",
"C  c #9C348A",
"Z  c #AC2F87",
"A  c #AD2F87",
"S  c #AE2F86",
"D  c #AE2F87",
"F  c #AF2F87",
"G  c #B12E86",
"H  c #B02F87",
"J  c #B12F87",
"K  c #B22E86",
"L  c #B32E86",
"P  c #B52D85",
"I  c #B52D86",
"U  c #B62D86",
"Y  c #B72D86",
"T  c #B42E86",
"R  c #B52E86",
"E  c #BD2B85",
"W  c #BE2B84",
"Q  c #BF2B84",
"!  c #BE2B85",
"~  c #B92C85",
"^  c #B82D85",
"/  c #B92D85",
"(  c #BA2C85",
")  c #BB2C85",
"_  c #B82D86",
"`  c #BC2C85",
"'  c #BD2C85",
"]  c #A83187",
"[  c #AA3087",
"{  c #AB3087",
"}  c #AC3087",
"|  c #AD3087",
" . c #A33188",
".. c #A13288",
"X. c #A03289",
"o. c #A13289",
"O. c #A03389",
"+. c #A33288",
"@. c #A23289",
"#. c #A33289",
"$. c #A43188",
"%. c #A53188",
"&. c #A63188",
"*. c #A73188",
"=. c #A43288",
"-. c #A93088",
";. c #A83188",
":. c #AA3088",
">. c #CD2782",
",. c #CE2782",
"<. c #CF2782",
"1. c #C52983",
"2. c #C62983",
"3. c #C72983",
"4. c #C12A84",
"5. c #C02B84",
"6. c #C12B84",
"7. c #C22A84",
"8. c #C32A84",
"9. c #C42A84",
"0. c #C52A84",
"q. c #C92883",
"w. c #C82983",
"e. c #C92983",
"r. c #CB2882",
"t. c #CA2883",
"y. c #CB2883",
"u. c #CC2882",
"i. c #CD2882",
"p. c #CC2883",
"a. c #D32681",
"s. c #D12682",
"d. c #D02782",
"f. c #D12782",
"g. c #D22682",
"h. c #D32682",
"j. c #D22782",
"k. c #D62581",
"l. c #D72581",
"z. c #D42681",
"x. c #D52681",
"c. c #D62681",
"v. c #DE2380",
"b. c #DF2380",
"n. c #D92481",
"m. c #D82581",
"M. c #D92581",
"N. c #DA2480",
"B. c #DB2480",
"V. c #DA2581",
"C. c #DC2480",
"Z. c #DD2480",
"A. c #DE2480",
"S. c #E02380",
"D. c #E12380",
/* pixels */
"                                                            4 < < <                                                             ",
"                                                        w 4 4 4 < < <                                                           ",
"                                                      w w 6 4 4 < < < %                                                         ",
"                                                    r r w w w 6 4 4 < < 2                                                       ",
"                                                  a : : : w w 6 1 1 4 4 <                                                       ",
"                                                a a : : : w w w w w 4 4 <                                                       ",
"                                              k a a a a : : w w w w w 4 4                                                       ",
"                                          M k M k a a a a : : : w w 4 w                                                         ",
"                                        b M M M k m a a a : : : r w w                                                           ",
"                                      b b M M M m h h a a a a : : :                                                             ",
"                                    o.O.b b M M m m k k k a a a :                                                               ",
"                                  &.o.o.b b b b C m k k k k a a                                                                 ",
"                                &.&.&.+. .C +.C C C m m k k k                   : : : w w w 4 4 4                               ",
"                              -.-.&.&.+. .+. .C C C C C M                 k a a a a : : w w 6 6 4 4 4 4 <                       ",
"                            } { -.&.Z %. .+.C  .+.C C C               k k k k a a a r : : w w w w 4 4 4 < < <                   ",
"                          A A } Z Z &.%.%.%.+.+.+.+.C             C b M M k k a a a a : : : : w w w w 4 4 < < <                 ",
"                        L | | F -.| -.-.&.&.&.+.+.+.             .C C m C m k k k a a a = = : w w w w 4 4 4 4 < < &             ",
"                    U U L L L F F -.| -.-.&.&.&.+.            +. .C +.C C m m m k k a a u u = : w w w w w 4 4 < < % &           ",
"                  / U U L L L | L F | -.{ -.&.&.            &.+.+.C +.C C C C m k k k a u u a : : w w w w 4 4 4 < < < &         ",
"                ) ) / U U U L L F F F Z { { -.            &.&.&. . .+.+.C C C m h k m u k k : a : : w w w w 4 w 4 < < & 2       ",
"              Q ' _ ) / U U U L K K K A } }           -.{ -.&.&.%.&.+.+.C C C C V V h m k k a a a : : : w w 4 4 w 4 1 1 <       ",
"            5.5.! ' Q _ / U U U K K K A A           F F { { -.&.%.%.+.+.+.+.+.C C V m       a a a a = : : w w w 1 4 4 4 < <     ",
"          9.5.5.Q ! Q _ / / _ U R R K K           K F | A { { -.&.&. .+.+.C C +.                  a : : : : w w w 8 4 4 4 <     ",
"        9.9.9.9.5.Q ! Q ) ) / / R R             K K K K A A { { Z Z %.%.&.+.+.                        a = : : w w w w 4 4 < <   ",
"      t.3.3.8.8.8.Q Q Q / Q / / /             U U L L L | F F -.-.-.&.&.&.&.                            u = : : r w w 6 4 4 4   ",
"      t.t.3.3.8.8.8.8.Q Q Q / /             / / U U L L K H F F | -.-.-.&.                                u : : r r w w w 4 4 4 ",
"    i.i.t.t.t.3.9.8.8.Q Q Q Q             / ) ) ) R U L K K K A F -.|             m m m k k               u : a : : : w w 4 w 1 ",
"    i.i.t.t.t.9.9.9.8.8.Q 8.            Q ) ) ) ) R U U K K K K F Z             c C C m m k k u           k a a a r : w : w w 8 ",
"  s.i.<.i.p.y.y.t.0.0.0.6.            5.5.5.Q ) ) ) Y Y Y K K K H             O.C C C C m m k k             k a u u : : w : w 6 ",
"  s.s.<.<.i.p.y.e.t.3.0.            9.5.5.5.Q Q ) ) ) Y Y Y R K           &.+.O.+.C C C m m k m k           k a k u = a : w w w ",
"c.s.s.s.s.i.i.p.t.t.e.          t.3.5.5.9.5.5.5.) ) ) ) Y Y Y           &.&.&.O.+.C +.C C C m m k           m u a a a : a : w : ",
"c.c.c.c.d.d.s.i.i.t.t.          t.3.t.3.9.9.5.5.Q Q ) ) ) Y           -.&.&.&.&.&.+.C O.C C C m m         m m k m h a a : : : w ",
"n.c.c.c.c.d.s.<.<.i.y.        i.t.t.3.3.2.9.9.5.5.Q ' Q /           | -.-.-.-.&.O.+.+.C +.C C C           m m m m k u u k a r : ",
"n.c.c.c.c.s.s.s.<.<.          i.i.t.t.t.q.9.9.9.5.Q Q Q           | F -.-.-.&.&.&.&.+.+.+.C C C           c C m m k k k a a u   ",
". c.m.m.c.s.s.s.<.<.          i.i.t.t.t.t.3.9.9.9.5.5.          L | | F } } -.-.&.&.+.+.+.+.C           C C C C m m m k a a u   ",
". n.m.m.c.c.c.s.s.<.          s.<.<.<.q.q.3.y.9.9.9.          U L L L | } -.| -.-.&.&.&.+.            +. .+.C m C m m m k k k   ",
"n.. m.m.m.m.c.c.s.s.d.          s.i.<.i.p.y.y.9.            U U R K F L H } } } -.-.&.&.            +.+.+.C +.C C C C m k k     ",
". n.m.. m.c.m.c.c.s.c.            d.<.<.p.p.y.            ) / U R R K K H H } } | -.-.            &.&.&.+.&.+.C C C C C m k     ",
"  Z.. m.. c.m.m.c.s.s.c.                                ) ) ) Y R Y R K K | K | -.|             -.-.&.&.&.+.+.C ..C C C m       ",
"  D.Z.. n.. n.m.c.c.c.c.                              5.) ) ) ) R ) R R K K L F F             -.| -.-.&.&.&.+.+. ...C C C       ",
"  o D.Z.Z.Z.Z.n.c.c.z.z.z.                        9.5.5.5.Q ) ) ) Y Y Y U L L H             F F { { { -.&.&.&.+.+.C C C         ",
"    o D.D.Z.n.. . m.z.z.c.c.c.                  3.5.9.5.5.Q Q Q ) ) ) Y U U L             L L F A A { { -.&.&.&.%. .+.          ",
"    o D.o Z.. n.. c.n.c.c.c.s.s.s.d.      t.t.t.3.3.9.9.5.5.5.Q ) ) ) R _ U           U U L L L A A A } { -.&.&.%.&.            ",
"      @ o o Z.. n.. n.c.n.m.c.c.s.d.d.d.i.i.t.t.3.3.3.5.9.5.5.5.Q Q ) ) /           / U U L L K K K A } { { -.-.%.              ",
"        o @ D.D.D.Z.n.. m.m.c.c.c.s.s.i.d.i.i.t.y.y.9.3.9.9.9.5.Q Q Q /           Q _ / U U K K K K | F F -.{ -.                ",
"        @ D.o o D.Z.. n.Z.m.n.m.c.c.c.s.d.d.<.i.i.t.t.3.3.9.9.5.Q Q             Q _ Q _ ) _ Y Y R K A L F F Z                   ",
"          D.o o o Z.Z.Z.Z.n.m.m.c.c.s.c.s.i.<.<.i.t.t.t.3.3.9.9.5.            5.8.' ' ' ) Y / Y R R K K K |                     ",
"            @ o o o D.Z.Z.. Z.m.c.c.c.c.c.s.s.<.i.i.t.t.t.3.3.9.            5.9.Q Q ' ' ) ) ) R R R R K K                       ",
"                @ D.@ S.S.C.C.C.m.m.m.c.c.s.s.s.<.<.i.t.y.y.9.            3.9.5.9.5.5.Q ) ) ) / ) Y Y                           ",
"                  + D.@ S.S.S.C.C.C.m.m.c.c.c.s.s.s.<.i.i.              t.t.t.9.9.5.5.5.Q Q ) Q ) R                             ",
"                        D.S.S.C.C.C.C.m.m.c.c.s.s.s.<.                i.t.t.y.9.9.9.9.5.Q Q Q / /                               ",
"                              S.C.C.C.m.m.m.c.c.                    i.i.t.t.y.9.q.9.9.5.5.Q Q Q                                 ",
"                                                                  d.d.d.i.y.y.y.q.9.9.9.9.5.5.                                  ",
"                                                              c.z.d.d.d.<.i.p.y.q.y.q.2.9.5.                                    ",
"                                                            m.m.c.s.s.d.<.<.<.y.q.q.y.9.3.                                      ",
"                                                          m.m.m.c.c.c.c.s.<.<.<.<.q.q.y.                                        ",
"                                                        C.C.C.m.m.c.c.s.c.s.i.s.i.i.t.                                          ",
"                                                        S.C.C.C.m.m.m.c.s.c.d.d.s.i.                                            ",
"                                                      O S.S.C.C.C.m.m.m.c.s.c.d.s.                                              ",
"                                                      o O S.S.C.C.C.m.m.m.c.c.                                                  ",
"                                                      @ D.O S.S.S.C.C.C.m.m.                                                    ",
"                                                        @ @ O S.S.C.C.C.m.                                                      ",
"                                                          @ $ O S.S.C.C.                                                        ",
"                                                            O $ S.S.S.                                                          "
};
